<?xml version="1.0" standalone="no"?>
<!DOCTYPE svg PUBLIC "-//W3C//DTD SVG 20010904//EN"
 "http://www.w3.org/TR/2001/REC-SVG-20010904/DTD/svg10.dtd">
<svg version="1.0" xmlns="http://www.w3.org/2000/svg"
 width="512.000000pt" height="512.000000pt" viewBox="0 0 512.000000 512.000000"
 preserveAspectRatio="xMidYMid meet">
<metadata>
Created by potrace 1.14, written by Peter Selinger 2001-2017
</metadata>
<g transform="translate(0.000000,512.000000) scale(0.100000,-0.100000)"
fill="#000000" stroke="none">
<path d="M3485 4884 c-112 -24 -223 -85 -309 -167 -102 -100 -149 -174 -188
-299 -28 -90 -31 -259 -5 -353 12 -45 234 -583 297 -720 5 -11 30 -69 56 -130
25 -60 54 -128 64 -150 10 -22 21 -50 24 -61 7 -22 13 -24 156 -40 19 -2 49
-6 65 -8 17 -3 57 -7 90 -11 33 -4 69 -8 81 -10 77 -12 156 -16 152 -9 -7 10
-448 1046 -503 1179 -31 75 -36 98 -33 142 12 136 154 222 280 170 71 -30 89
-61 248 -435 288 -676 442 -1037 462 -1080 11 -24 20 -51 21 -61 1 -13 -815
-1111 -868 -1170 -11 -11 -61 23 -294 199 -155 117 -281 215 -281 219 0 5 89
128 126 174 8 10 89 118 180 239 160 213 165 221 147 238 -51 49 -1553 1166
-1560 1161 -5 -3 -69 -86 -143 -184 l-134 -179 24 -18 c14 -11 141 -106 282
-212 141 -106 257 -195 257 -198 1 -3 -59 -84 -131 -181 -73 -97 -142 -189
-153 -203 -11 -15 -57 -76 -103 -136 -45 -60 -82 -111 -82 -114 0 -2 55 -46
123 -97 67 -51 194 -147 282 -214 141 -107 805 -608 1065 -803 52 -40 98 -72
102 -72 4 0 69 81 143 180 74 99 138 180 141 180 7 0 364 -271 364 -276 0 -3
-61 -85 -135 -184 -74 -99 -135 -183 -135 -187 1 -4 83 -69 184 -145 l183
-136 129 170 c71 94 134 178 140 187 10 14 -16 37 -172 155 -101 76 -184 141
-184 143 0 4 118 160 783 1042 253 335 259 344 249 375 -9 27 -200 480 -237
561 -7 17 -79 185 -160 375 -80 190 -152 359 -160 375 -7 17 -45 107 -85 200
-95 224 -108 251 -149 310 -89 125 -198 204 -351 255 -87 29 -249 35 -345 14z
m-806 -2146 c97 -73 182 -138 189 -145 10 -10 -6 -37 -83 -140 -53 -70 -99
-127 -103 -126 -15 3 -381 278 -382 286 0 12 184 256 194 256 5 1 88 -59 185
-131z"/>
<path d="M1670 4384 c-73 -97 -133 -182 -134 -189 -1 -10 199 -169 332 -264
l29 -21 137 180 c75 99 136 184 136 189 0 5 -62 55 -137 112 -76 57 -156 118
-177 136 -22 18 -43 33 -46 33 -4 0 -66 -79 -140 -176z"/>
<path d="M1021 4296 c-72 -96 -136 -178 -141 -181 -6 -4 -8 -10 -5 -15 3 -5
84 -68 180 -141 97 -72 178 -135 180 -139 3 -4 -126 -180 -285 -391 -160 -211
-404 -535 -544 -720 -139 -184 -259 -344 -266 -356 -12 -19 1 -56 124 -344 76
-178 228 -535 338 -794 244 -574 223 -526 263 -610 62 -131 133 -216 243 -288
117 -76 223 -109 357 -110 111 -1 152 5 238 36 163 59 295 177 371 329 25 51
52 121 60 155 18 81 14 249 -9 323 -9 30 -100 250 -202 489 -101 239 -189 444
-194 457 -10 29 -50 118 -54 122 -3 4 -109 19 -190 27 -33 3 -71 8 -85 10 -39
6 -100 14 -160 21 -30 3 -65 7 -77 8 -13 2 -23 3 -23 2 0 -1 119 -280 265
-621 146 -341 268 -639 272 -662 12 -85 -37 -178 -113 -215 -71 -36 -178 -14
-236 48 -16 18 -79 152 -158 339 -73 171 -138 325 -146 343 -8 17 -20 47 -28
65 -8 17 -86 202 -175 410 l-161 378 213 282 c642 849 737 976 737 984 0 6
-190 153 -349 269 -13 10 4 38 118 190 74 97 134 183 135 189 1 10 -86 79
-330 262 l-31 23 -132 -174z"/>
<path d="M3204 1178 c-43 -57 -106 -140 -141 -184 l-63 -82 158 -118 c86 -64
171 -128 187 -140 l31 -23 137 183 c75 101 137 185 137 188 0 5 -332 257 -357
272 -7 4 -41 -32 -89 -96z"/>
</g>
</svg>
